<?xml version="1.0" encoding="UTF-8" standalone="no" ?>
<!DOCTYPE svg PUBLIC "-//W3C//DTD SVG 1.1//EN" "http://www.w3.org/Graphics/SVG/1.1/DTD/svg11.dtd">
<svg xmlns="http://www.w3.org/2000/svg" xmlns:xlink="http://www.w3.org/1999/xlink" version="1.1" width="317.0799560546875" height="122.60000000000001" xml:space="preserve">
<desc>Created with Fabric.js 1.6.0-rc.1</desc>
<defs></defs>
<g style="stroke: none; stroke-width: 1; stroke-dasharray: none; stroke-linecap: butt; stroke-linejoin: miter; stroke-miterlimit: 10; fill: none; fill-rule: nonzero; opacity: 1;" transform="translate(10 10) scale(0.2 0.2)" >
  <path d="M 256 0 c 141.384 0 256 114.616 256 256 c 0 141.387 -114.616 256 -256 256 S 0 397.387 0 256 C 0 114.616 114.616 0 256 0 z" style="stroke: none; stroke-width: 1; stroke-dasharray: none; stroke-linecap: butt; stroke-linejoin: miter; stroke-miterlimit: 10; fill: #334d56; fill-rule: nonzero; opacity: 1;" transform=" matrix(1 0 0 1 0 0) " stroke-linecap="round" />
  <path d="M 132.171 107.94 h 247.927 v 199.904 H 132.171 V 107.94 z" style="stroke: none; stroke-width: 1; stroke-dasharray: none; stroke-linecap: butt; stroke-linejoin: miter; stroke-miterlimit: 10; fill: #CF7E34; fill-rule: nonzero; opacity: 1;" transform=" matrix(1 0 0 1 0 0) " stroke-linecap="round" />
  <path d="M 391.687 307.788 c 0 -62.912 0.32 -151.731 0.32 -151.731 c 0 0.096 -271.771 -0.084 -272.031 0 v 151.677 c 0.019 0.04 -4.236 81.743 -4.236 81.743 c 0 9.404 7.619 14.588 17.025 14.588 h 246.583 c 9.401 0 17.023 -5.187 17.023 -14.588 C 396.376 389.475 391.663 307.804 391.687 307.788 z" style="stroke: none; stroke-width: 1; stroke-dasharray: none; stroke-linecap: butt; stroke-linejoin: miter; stroke-miterlimit: 10; fill: #f3b745; fill-rule: nonzero; opacity: 1;" transform=" matrix(1 0 0 1 0 0) " stroke-linecap="round" />
  <path d="M 120 156.001 h 271.999 v 152 H 120 V 156.001 z" style="stroke: none; stroke-width: 1; stroke-dasharray: none; stroke-linecap: butt; stroke-linejoin: miter; stroke-miterlimit: 10; fill: #E7AE44; fill-rule: nonzero; opacity: 1;" transform=" matrix(1 0 0 1 0 0) " stroke-linecap="round" />
  <path d="M 177.888 179.955 c -5.48 0 -9.92 4.445 -9.92 9.92 c 0 5.477 4.44 9.92 9.92 9.92 s 10.048 -4.44 10.048 -9.92 C 187.936 184.395 183.368 179.955 177.888 179.955 z M 333.887 179.955 c -5.48 0 -9.92 4.445 -9.92 9.92 c 0 5.477 4.44 9.92 9.92 9.92 c 5.48 0 10.048 -4.44 10.048 -9.92 C 343.935 184.395 339.367 179.955 333.887 179.955 z" style="stroke: none; stroke-width: 1; stroke-dasharray: none; stroke-linecap: butt; stroke-linejoin: miter; stroke-miterlimit: 10; fill: #CF7E34; fill-rule: nonzero; opacity: 1;" transform=" matrix(1 0 0 1 0 0) " stroke-linecap="round" />
  <path d="M 340.259 194.231 h -0.019 c -0.092 -3.429 -2.905 -5.687 -6.367 -5.687 c -3.467 0 -6.272 2.26 -6.372 5.687 h -0.084 c -0.019 40.632 -30.568 73.568 -71.208 73.568 c -40.635 0 -71.98 -32.932 -72 -73.568 h -0.072 c -0.092 -3.429 -2.905 -5.687 -6.367 -5.687 c -3.467 0 -6.272 2.26 -6.372 5.687 h -0.019 l 0.008 0.116 l -0.008 0.056 l 0.016 0.164 c 0.18 47.584 37.2 86.1 84.823 86.1 c 47.639 0 83.876 -38.544 84.027 -86.145 l 0.008 -0.121 v -0.04 L 340.259 194.231 L 340.259 194.231 z" style="stroke: none; stroke-width: 1; stroke-dasharray: none; stroke-linecap: butt; stroke-linejoin: miter; stroke-miterlimit: 10; fill: #FFFFFF; fill-rule: nonzero; opacity: 1;" transform=" matrix(1 0 0 1 0 0) " stroke-linecap="round" />
  <polygon points="380.1,107.94 355.83,123.7 355.83,147.76 380.1,148.08 " style="stroke: none; stroke-width: 1; stroke-dasharray: none; stroke-linecap: butt; stroke-linejoin: miter; stroke-miterlimit: 10; fill: #f3b745; fill-rule: nonzero; opacity: 1;" transform="  matrix(1 0 0 1 0 0) "/>
  <polygon points="355.8,123.74 355.83,156.06 392.27,156.06 " style="stroke: none; stroke-width: 1; stroke-dasharray: none; stroke-linecap: butt; stroke-linejoin: miter; stroke-miterlimit: 10; fill: #F19440; fill-rule: nonzero; opacity: 1;" transform="  matrix(1 0 0 1 0 0) "/>
  <polygon points="132.17,107.94 156.43,123.7 156.43,147.76 132.17,148.08 " style="stroke: none; stroke-width: 1; stroke-dasharray: none; stroke-linecap: butt; stroke-linejoin: miter; stroke-miterlimit: 10; fill: #f3b745; fill-rule: nonzero; opacity: 1;" transform="  matrix(1 0 0 1 0 0) "/>
  <polygon points="120,156.06 156.43,156.06 156.48,123.74 " style="stroke: none; stroke-width: 1; stroke-dasharray: none; stroke-linecap: butt; stroke-linejoin: miter; stroke-miterlimit: 10; fill: #F19440; fill-rule: nonzero; opacity: 1;" transform="  matrix(1 0 0 1 0 0) "/>
</g>
  <g transform="translate(165.48 70.12)">
   <text font-family="zwodrei - free" font-size="40" font-style="italic" font-weight="normal" style="stroke: none; stroke-width: 1; stroke-dasharray: none; stroke-linecap: butt; stroke-linejoin: miter; stroke-miterlimit: 10; fill: #f3b747; fill-rule: nonzero; opacity: 1;" ><tspan x="-49.98" y="8.98" style="stroke: none; stroke-width: 0; stroke-dasharray: none; stroke-linecap: butt; stroke-linejoin: miter; stroke-miterlimit: 4; fill: #f3b747; fill-rule: ; opacity: 1;">S</tspan><tspan x="-27.86" y="8.98" style="stroke: none; stroke-width: 0; stroke-dasharray: none; stroke-linecap: butt; stroke-linejoin: miter; stroke-miterlimit: 4; fill: #f3b747; fill-rule: ; opacity: 1;">H</tspan><tspan x="-0.9" y="8.98" style="stroke: none; stroke-width: 0; stroke-dasharray: none; stroke-linecap: butt; stroke-linejoin: miter; stroke-miterlimit: 4; fill: #f3b747; fill-rule: ; opacity: 1;">O</tspan><tspan x="26.5" y="8.98" style="stroke: none; stroke-width: 0; stroke-dasharray: none; stroke-linecap: butt; stroke-linejoin: miter; stroke-miterlimit: 4; fill: #f3b747; fill-rule: ; opacity: 1;">P</tspan></text>
 </g>
  <g transform="translate(232.68 71.61) scale(0.95 0.95)">
   <text font-family="Amerika Sans" font-size="40" font-style="italic" font-weight="bold" style="stroke: none; stroke-width: 1; stroke-dasharray: none; stroke-linecap: butt; stroke-linejoin: miter; stroke-miterlimit: 10; fill: #334d5d; fill-rule: nonzero; opacity: 1;" ><tspan x="-19.16" y="8.98" style="stroke: none; stroke-width: 0; stroke-dasharray: none; stroke-linecap: butt; stroke-linejoin: miter; stroke-miterlimit: 4; fill: #334d5d; fill-rule: ; opacity: 1;">@</tspan></text>
 </g>
  <g transform="translate(281.04 70.12)">
   <text font-family="Bombardier" font-size="40" font-style="italic" font-weight="normal" style="stroke: none; stroke-width: 1; stroke-dasharray: none; stroke-linecap: butt; stroke-linejoin: miter; stroke-miterlimit: 10; fill: #e60909; fill-rule: nonzero; opacity: 1;" ><tspan x="-26.54" y="8.98" style="stroke: none; stroke-width: 0; stroke-dasharray: none; stroke-linecap: butt; stroke-linejoin: miter; stroke-miterlimit: 4; fill: #e60909; fill-rule: ; opacity: 1;">t</tspan><tspan x="-14.18" y="8.98" style="stroke: none; stroke-width: 0; stroke-dasharray: none; stroke-linecap: butt; stroke-linejoin: miter; stroke-miterlimit: 4; fill: #e60909; fill-rule: ; opacity: 1;">i</tspan><tspan x="-5.54" y="8.98" style="stroke: none; stroke-width: 0; stroke-dasharray: none; stroke-linecap: butt; stroke-linejoin: miter; stroke-miterlimit: 4; fill: #e60909; fill-rule: ; opacity: 1;">e</tspan><tspan x="14.18" y="8.98" style="stroke: none; stroke-width: 0; stroke-dasharray: none; stroke-linecap: butt; stroke-linejoin: miter; stroke-miterlimit: 4; fill: #e60909; fill-rule: ; opacity: 1;">t</tspan></text>
 </g>
</svg>