<?xml version="1.0" encoding="UTF-8" standalone="no" ?>
<!DOCTYPE svg PUBLIC "-//W3C//DTD SVG 1.1//EN" "http://www.w3.org/Graphics/SVG/1.1/DTD/svg11.dtd">
<svg xmlns="http://www.w3.org/2000/svg" xmlns:xlink="http://www.w3.org/1999/xlink" version="1.1" width="429.890625" height="99.4282" xml:space="preserve">
<desc>Created with Fabric.js 1.6.0-rc.1</desc>
<defs></defs>
<g style="stroke: none; stroke-width: 1; stroke-dasharray: none; stroke-linecap: butt; stroke-linejoin: miter; stroke-miterlimit: 10; fill: none; fill-rule: nonzero; opacity: 1;" transform="translate(10 10) scale(0.62 0.62)" >
  <rect x="56.55" y="29.44" rx="0" ry="0" width="17" height="14" style="stroke: none; stroke-width: 1; stroke-dasharray: none; stroke-linecap: butt; stroke-linejoin: miter; stroke-miterlimit: 10; fill: #FFFFFF; fill-rule: nonzero; opacity: 1;" transform=" matrix(1 0 0 1 0 0) "/>
  <rect x="33.55" y="49.44" rx="0" ry="0" width="17" height="13" style="stroke: none; stroke-width: 1; stroke-dasharray: none; stroke-linecap: butt; stroke-linejoin: miter; stroke-miterlimit: 10; fill: #FFFFFF; fill-rule: nonzero; opacity: 1;" transform=" matrix(1 0 0 1 0 0) "/>
  <rect x="33.55" y="68.44" rx="0" ry="0" width="17" height="14" style="stroke: none; stroke-width: 1; stroke-dasharray: none; stroke-linecap: butt; stroke-linejoin: miter; stroke-miterlimit: 10; fill: #FFFFFF; fill-rule: nonzero; opacity: 1;" transform=" matrix(1 0 0 1 0 0) "/>
  <rect x="56.55" y="49.44" rx="0" ry="0" width="17" height="13" style="stroke: none; stroke-width: 1; stroke-dasharray: none; stroke-linecap: butt; stroke-linejoin: miter; stroke-miterlimit: 10; fill: #FFFFFF; fill-rule: nonzero; opacity: 1;" transform=" matrix(1 0 0 1 0 0) "/>
  <polygon points="27.55,29.44 7.1,29.44 9.47,43.44 27.55,43.44 " style="stroke: none; stroke-width: 1; stroke-dasharray: none; stroke-linecap: butt; stroke-linejoin: miter; stroke-miterlimit: 10; fill: #FFFFFF; fill-rule: nonzero; opacity: 1;" transform="  matrix(1 0 0 1 0 0) "/>
  <polygon points="27.55,68.44 13.71,68.44 16.09,82.44 27.55,82.44 " style="stroke: none; stroke-width: 1; stroke-dasharray: none; stroke-linecap: butt; stroke-linejoin: miter; stroke-miterlimit: 10; fill: #FFFFFF; fill-rule: nonzero; opacity: 1;" transform="  matrix(1 0 0 1 0 0) "/>
  <polygon points="27.55,49.44 10.49,49.44 12.7,62.44 27.55,62.44 " style="stroke: none; stroke-width: 1; stroke-dasharray: none; stroke-linecap: butt; stroke-linejoin: miter; stroke-miterlimit: 10; fill: #FFFFFF; fill-rule: nonzero; opacity: 1;" transform="  matrix(1 0 0 1 0 0) "/>
  <rect x="33.55" y="29.44" rx="0" ry="0" width="17" height="14" style="stroke: none; stroke-width: 1; stroke-dasharray: none; stroke-linecap: butt; stroke-linejoin: miter; stroke-miterlimit: 10; fill: #FFFFFF; fill-rule: nonzero; opacity: 1;" transform=" matrix(1 0 0 1 0 0) "/>
  <polygon points="79.55,82.44 90.1,82.44 92.95,68.44 79.55,68.44 " style="stroke: none; stroke-width: 1; stroke-dasharray: none; stroke-linecap: butt; stroke-linejoin: miter; stroke-miterlimit: 10; fill: #FFFFFF; fill-rule: nonzero; opacity: 1;" transform="  matrix(1 0 0 1 0 0) "/>
  <polygon points="79.55,43.44 98.03,43.44 100.88,29.44 79.55,29.44 " style="stroke: none; stroke-width: 1; stroke-dasharray: none; stroke-linecap: butt; stroke-linejoin: miter; stroke-miterlimit: 10; fill: #FFFFFF; fill-rule: nonzero; opacity: 1;" transform="  matrix(1 0 0 1 0 0) "/>
  <polygon points="79.55,62.44 94.17,62.44 96.81,49.44 79.55,49.44 " style="stroke: none; stroke-width: 1; stroke-dasharray: none; stroke-linecap: butt; stroke-linejoin: miter; stroke-miterlimit: 10; fill: #FFFFFF; fill-rule: nonzero; opacity: 1;" transform="  matrix(1 0 0 1 0 0) "/>
  <rect x="56.55" y="68.44" rx="0" ry="0" width="17" height="14" style="stroke: none; stroke-width: 1; stroke-dasharray: none; stroke-linecap: butt; stroke-linejoin: miter; stroke-miterlimit: 10; fill: #FFFFFF; fill-rule: nonzero; opacity: 1;" transform=" matrix(1 0 0 1 0 0) "/>
  <path d="M 128.551 4.443 h -22.45 l -3.866 19 H 0 l 11.017 65 h 16.534 v 9.643 c -6.652 1.389 -11.666 7.297 -11.666 14.355 c 0 8.087 6.579 14.667 14.666 14.667 c 8.087 0 14.666 -6.58 14.666 -14.667 c 0 -7.059 -5.014 -12.967 -11.666 -14.355 v -9.643 h 40 v 9.643 c -6.652 1.389 -11.666 7.297 -11.666 14.355 c 0 8.087 6.579 14.667 14.666 14.667 c 8.087 0 14.666 -6.58 14.666 -14.667 c 0 -7.059 -5.014 -12.967 -11.666 -14.355 v -9.643 h 15.451 l 9.644 -47.414 c 0.131 -0.247 0.237 -0.511 0.296 -0.798 l 6.062 -29.788 h 17.548 c 1.657 0 3 -1.343 3 -3 S 130.208 4.443 128.551 4.443 z M 7.102 29.443 h 20.449 v 14 H 9.475 L 7.102 29.443 z M 10.491 49.443 h 17.06 v 13 H 12.695 L 10.491 49.443 z M 16.085 82.443 l -2.373 -14 h 13.839 v 14 H 16.085 z M 39.217 112.441 c 0 4.779 -3.888 8.667 -8.666 8.667 c -4.778 0 -8.666 -3.888 -8.666 -8.667 c 0 -4.778 3.888 -8.666 8.666 -8.666 C 35.329 103.775 39.217 107.663 39.217 112.441 z M 56.551 29.443 h 17 v 14 h -17 V 29.443 z M 56.551 49.443 h 17 v 13 h -17 V 49.443 z M 50.551 82.443 h -17 v -14 h 17 V 82.443 z M 50.551 62.443 h -17 v -13 h 17 V 62.443 z M 50.551 43.443 h -17 v -14 h 17 V 43.443 z M 56.551 82.443 v -14 h 17 v 14 H 56.551 z M 85.217 112.441 c 0 4.779 -3.888 8.667 -8.666 8.667 c -4.778 0 -8.666 -3.888 -8.666 -8.667 c 0 -4.778 3.888 -8.666 8.666 -8.666 C 81.329 103.775 85.217 107.663 85.217 112.441 z M 90.1 82.443 H 79.551 v -14 h 13.396 L 90.1 82.443 z M 94.167 62.443 H 79.551 v -13 h 17.261 L 94.167 62.443 z M 98.031 43.443 h -18.48 v -14 h 21.328 L 98.031 43.443 z" style="stroke: none; stroke-width: 1; stroke-dasharray: none; stroke-linecap: butt; stroke-linejoin: miter; stroke-miterlimit: 10; fill: #1e2d38; fill-rule: nonzero; opacity: 1;" transform=" matrix(1 0 0 1 0 0) " stroke-linecap="round" />
  <path d="M 21.885 112.441 c 0 4.779 3.888 8.667 8.666 8.667 c 4.778 0 8.666 -3.888 8.666 -8.667 c 0 -4.778 -3.888 -8.666 -8.666 -8.666 C 25.772 103.775 21.885 107.663 21.885 112.441 z" style="stroke: none; stroke-width: 1; stroke-dasharray: none; stroke-linecap: butt; stroke-linejoin: miter; stroke-miterlimit: 10; fill: #25f557; fill-rule: nonzero; opacity: 1;" transform=" matrix(1 0 0 1 0 0) " stroke-linecap="round" />
  <path d="M 67.885 112.441 c 0 4.779 3.888 8.667 8.666 8.667 c 4.778 0 8.666 -3.888 8.666 -8.667 c 0 -4.778 -3.888 -8.666 -8.666 -8.666 C 71.772 103.775 67.885 107.663 67.885 112.441 z" style="stroke: none; stroke-width: 1; stroke-dasharray: none; stroke-linecap: butt; stroke-linejoin: miter; stroke-miterlimit: 10; fill: #25f557; fill-rule: nonzero; opacity: 1;" transform=" matrix(1 0 0 1 0 0) " stroke-linecap="round" />
</g>
  <g transform="translate(246.45 45.72)">
   <text font-family="ADAMCG PRO" font-size="40" font-style="italic" font-weight="normal" style="stroke: none; stroke-width: 1; stroke-dasharray: none; stroke-linecap: butt; stroke-linejoin: miter; stroke-miterlimit: 10; fill: #25f55d; fill-rule: nonzero; opacity: 1;" ><tspan x="-173.95" y="8.98" style="stroke: none; stroke-width: 0; stroke-dasharray: none; stroke-linecap: butt; stroke-linejoin: miter; stroke-miterlimit: 4; fill: #25f55d; fill-rule: ; opacity: 1;">E</tspan><tspan x="-150.68" y="8.98" style="stroke: none; stroke-width: 0; stroke-dasharray: none; stroke-linecap: butt; stroke-linejoin: miter; stroke-miterlimit: 4; fill: #25f55d; fill-rule: ; opacity: 1;">a</tspan><tspan x="-122.89" y="8.98" style="stroke: none; stroke-width: 0; stroke-dasharray: none; stroke-linecap: butt; stroke-linejoin: miter; stroke-miterlimit: 4; fill: #25f55d; fill-rule: ; opacity: 1;">s</tspan><tspan x="-101.78" y="8.98" style="stroke: none; stroke-width: 0; stroke-dasharray: none; stroke-linecap: butt; stroke-linejoin: miter; stroke-miterlimit: 4; fill: #25f55d; fill-rule: ; opacity: 1;">y</tspan><tspan x="-74.26" y="8.98" style="stroke: none; stroke-width: 0; stroke-dasharray: none; stroke-linecap: butt; stroke-linejoin: miter; stroke-miterlimit: 4; fill: #25f55d; fill-rule: ; opacity: 1;">b</tspan><tspan x="-50.74" y="8.98" style="stroke: none; stroke-width: 0; stroke-dasharray: none; stroke-linecap: butt; stroke-linejoin: miter; stroke-miterlimit: 4; fill: #25f55d; fill-rule: ; opacity: 1;">u</tspan><tspan x="-23.11" y="8.98" style="stroke: none; stroke-width: 0; stroke-dasharray: none; stroke-linecap: butt; stroke-linejoin: miter; stroke-miterlimit: 4; fill: #25f55d; fill-rule: ; opacity: 1;">y</tspan><tspan x="4.41" y="8.98" style="stroke: none; stroke-width: 0; stroke-dasharray: none; stroke-linecap: butt; stroke-linejoin: miter; stroke-miterlimit: 4; fill: #25f55d; fill-rule: ; opacity: 1;">a</tspan><tspan x="32.21" y="8.98" style="stroke: none; stroke-width: 0; stroke-dasharray: none; stroke-linecap: butt; stroke-linejoin: miter; stroke-miterlimit: 4; fill: #25f55d; fill-rule: ; opacity: 1;">n</tspan><tspan x="61.72" y="8.98" style="stroke: none; stroke-width: 0; stroke-dasharray: none; stroke-linecap: butt; stroke-linejoin: miter; stroke-miterlimit: 4; fill: #25f55d; fill-rule: ; opacity: 1;">d</tspan><tspan x="88.71" y="8.98" style="stroke: none; stroke-width: 0; stroke-dasharray: none; stroke-linecap: butt; stroke-linejoin: miter; stroke-miterlimit: 4; fill: #25f55d; fill-rule: ; opacity: 1;">s</tspan><tspan x="109.82" y="8.98" style="stroke: none; stroke-width: 0; stroke-dasharray: none; stroke-linecap: butt; stroke-linejoin: miter; stroke-miterlimit: 4; fill: #25f55d; fill-rule: ; opacity: 1;">e</tspan><tspan x="133.09" y="8.98" style="stroke: none; stroke-width: 0; stroke-dasharray: none; stroke-linecap: butt; stroke-linejoin: miter; stroke-miterlimit: 4; fill: #25f55d; fill-rule: ; opacity: 1;">l</tspan><tspan x="153.52" y="8.98" style="stroke: none; stroke-width: 0; stroke-dasharray: none; stroke-linecap: butt; stroke-linejoin: miter; stroke-miterlimit: 4; fill: #25f55d; fill-rule: ; opacity: 1;">l</tspan></text>
 </g>
  <g transform="translate(366.88 73.55) scale(0.6 0.6)">
   <text font-family="ADAMCG PRO" font-size="40" font-style="italic" font-weight="normal" style="stroke: none; stroke-width: 1; stroke-dasharray: none; stroke-linecap: butt; stroke-linejoin: miter; stroke-miterlimit: 10; fill: #11661b; fill-rule: nonzero; opacity: 1;" ><tspan x="-52.6" y="8.98" style="stroke: none; stroke-width: 0; stroke-dasharray: none; stroke-linecap: butt; stroke-linejoin: miter; stroke-miterlimit: 4; fill: #11661b; fill-rule: ; opacity: 1;">.</tspan><tspan x="-42.52" y="8.98" style="stroke: none; stroke-width: 0; stroke-dasharray: none; stroke-linecap: butt; stroke-linejoin: miter; stroke-miterlimit: 4; fill: #11661b; fill-rule: ; opacity: 1;">c</tspan><tspan x="-15.45" y="8.98" style="stroke: none; stroke-width: 0; stroke-dasharray: none; stroke-linecap: butt; stroke-linejoin: miter; stroke-miterlimit: 4; fill: #11661b; fill-rule: ; opacity: 1;">o</tspan><tspan x="18.5" y="8.98" style="stroke: none; stroke-width: 0; stroke-dasharray: none; stroke-linecap: butt; stroke-linejoin: miter; stroke-miterlimit: 4; fill: #11661b; fill-rule: ; opacity: 1;">m</tspan></text>
 </g>
</svg>